STARTFONT 2.1
FONT -gnu-fixed-medium-r-normal-h-8-160-75-75-c-80-iso10646-1
SIZE 16 75 75
FONTBOUNDINGBOX 8 16 0 -2
COMMENT "Generated by fontforge, http://fontforge.sourceforge.net"
STARTPROPERTIES 18
FONTNAME_REGISTRY ""
FOUNDRY "gnu"
FAMILY_NAME "fixed"
WEIGHT_NAME "medium"
SLANT "r"
SETWIDTH_NAME "normal"
ADD_STYLE_NAME "h"
PIXEL_SIZE 16
POINT_SIZE 160
RESOLUTION_X 75
RESOLUTION_Y 75
SPACING "c"
AVERAGE_WIDTH 80
CHARSET_REGISTRY "iso10646"
CHARSET_ENCODING "1"
DEFAULT_CHAR 65533
FONT_ASCENT 14
FONT_DESCENT 2
ENDPROPERTIES
CHARS 45
STARTCHAR U+10D0
ENCODING 4304
SWIDTH 500 0
DWIDTH 8 0
BBX 5 6 2 2
BITMAP
20
10
08
88
88
70
ENDCHAR
STARTCHAR U+10D1
ENCODING 4305
SWIDTH 500 0
DWIDTH 8 0
BBX 5 10 2 2
BITMAP
80
C0
A0
A0
20
70
88
88
88
70
ENDCHAR
STARTCHAR U+10D2
ENCODING 4306
SWIDTH 500 0
DWIDTH 8 0
BBX 5 9 2 -2
BITMAP
60
90
10
20
70
88
88
88
70
ENDCHAR
STARTCHAR U+10D3
ENCODING 4307
SWIDTH 500 0
DWIDTH 8 0
BBX 7 9 1 -2
BITMAP
6C
92
92
92
8C
80
40
20
1C
ENDCHAR
STARTCHAR U+10D4
ENCODING 4308
SWIDTH 500 0
DWIDTH 8 0
BBX 5 9 2 -2
BITMAP
70
88
88
08
08
08
88
88
70
ENDCHAR
STARTCHAR U+10D5
ENCODING 4309
SWIDTH 500 0
DWIDTH 8 0
BBX 5 9 2 -2
BITMAP
70
88
88
08
30
08
88
88
70
ENDCHAR
STARTCHAR U+10D6
ENCODING 4310
SWIDTH 500 0
DWIDTH 8 0
BBX 6 10 1 2
BITMAP
60
90
90
90
60
38
44
44
44
38
ENDCHAR
STARTCHAR U+10D7
ENCODING 4311
SWIDTH 500 0
DWIDTH 8 0
BBX 7 5 1 2
BITMAP
6C
92
92
92
64
ENDCHAR
STARTCHAR U+10D8
ENCODING 4312
SWIDTH 500 0
DWIDTH 8 0
BBX 5 5 2 2
BITMAP
70
88
88
88
50
ENDCHAR
STARTCHAR U+10D9
ENCODING 4313
SWIDTH 500 0
DWIDTH 8 0
BBX 5 9 2 -2
BITMAP
10
08
08
08
30
08
88
88
70
ENDCHAR
STARTCHAR U+10DA
ENCODING 4314
SWIDTH 500 0
DWIDTH 8 0
BBX 7 9 1 -2
BITMAP
54
AA
AA
82
84
80
40
20
1C
ENDCHAR
STARTCHAR U+10DB
ENCODING 4315
SWIDTH 500 0
DWIDTH 8 0
BBX 5 10 2 2
BITMAP
70
88
88
08
08
78
88
88
88
70
ENDCHAR
STARTCHAR U+10DC
ENCODING 4316
SWIDTH 500 0
DWIDTH 8 0
BBX 5 10 2 2
BITMAP
78
80
80
80
80
F0
88
88
88
70
ENDCHAR
STARTCHAR U+10DD
ENCODING 4317
SWIDTH 500 0
DWIDTH 8 0
BBX 7 5 1 2
BITMAP
6C
92
92
82
44
ENDCHAR
STARTCHAR U+10DE
ENCODING 4318
SWIDTH 500 0
DWIDTH 8 0
BBX 5 10 2 2
BITMAP
20
10
08
08
08
30
08
88
88
70
ENDCHAR
STARTCHAR U+10DF
ENCODING 4319
SWIDTH 500 0
DWIDTH 8 0
BBX 6 9 1 -2
BITMAP
1C
24
94
94
64
04
04
44
38
ENDCHAR
STARTCHAR U+10E0
ENCODING 4320
SWIDTH 500 0
DWIDTH 8 0
BBX 7 10 1 2
BITMAP
3C
40
80
80
80
EC
92
92
82
44
ENDCHAR
STARTCHAR U+10E1
ENCODING 4321
SWIDTH 500 0
DWIDTH 8 0
BBX 5 10 2 2
BITMAP
80
80
80
80
80
90
88
88
88
70
ENDCHAR
STARTCHAR U+10E2
ENCODING 4322
SWIDTH 500 0
DWIDTH 8 0
BBX 6 9 1 -2
BITMAP
18
24
24
78
94
A4
84
84
78
ENDCHAR
STARTCHAR U+10E3
ENCODING 4323
SWIDTH 500 0
DWIDTH 8 0
BBX 6 9 1 -2
BITMAP
D8
24
24
04
04
04
44
44
38
ENDCHAR
STARTCHAR U+10E4
ENCODING 4324
SWIDTH 500 0
DWIDTH 8 0
BBX 7 9 1 -2
BITMAP
6C
92
92
92
64
02
02
02
3C
ENDCHAR
STARTCHAR U+10E5
ENCODING 4325
SWIDTH 500 0
DWIDTH 8 0
BBX 5 14 2 -2
BITMAP
08
08
08
08
08
38
48
48
08
08
08
88
88
70
ENDCHAR
STARTCHAR U+10E6
ENCODING 4326
SWIDTH 500 0
DWIDTH 8 0
BBX 7 9 1 -2
BITMAP
6C
92
92
82
84
80
80
40
38
ENDCHAR
STARTCHAR U+10E7
ENCODING 4327
SWIDTH 500 0
DWIDTH 8 0
BBX 5 9 2 -2
BITMAP
48
88
88
88
78
08
08
88
70
ENDCHAR
STARTCHAR U+10E8
ENCODING 4328
SWIDTH 500 0
DWIDTH 8 0
BBX 6 10 1 2
BITMAP
D8
24
24
04
04
3C
44
44
44
38
ENDCHAR
STARTCHAR U+10E9
ENCODING 4329
SWIDTH 500 0
DWIDTH 8 0
BBX 5 10 2 2
BITMAP
60
90
90
A0
C0
F0
88
88
88
90
ENDCHAR
STARTCHAR U+10EA
ENCODING 4330
SWIDTH 500 0
DWIDTH 8 0
BBX 5 9 2 -2
BITMAP
90
88
88
88
B0
88
88
88
70
ENDCHAR
STARTCHAR U+10EB
ENCODING 4331
SWIDTH 500 0
DWIDTH 8 0
BBX 5 10 2 2
BITMAP
08
08
08
08
08
78
88
88
88
70
ENDCHAR
STARTCHAR U+10EC
ENCODING 4332
SWIDTH 500 0
DWIDTH 8 0
BBX 6 14 2 -2
BITMAP
6C
90
90
80
80
F0
88
88
88
90
A0
C0
80
80
ENDCHAR
STARTCHAR U+10ED
ENCODING 4333
SWIDTH 500 0
DWIDTH 8 0
BBX 6 14 1 -2
BITMAP
10
10
10
74
98
98
74
10
18
04
04
44
44
38
ENDCHAR
STARTCHAR U+10EE
ENCODING 4334
SWIDTH 500 0
DWIDTH 8 0
BBX 5 10 2 2
BITMAP
80
80
80
80
80
F0
88
88
88
70
ENDCHAR
STARTCHAR U+10EF
ENCODING 4335
SWIDTH 500 0
DWIDTH 8 0
BBX 5 10 2 -2
BITMAP
20
20
F8
20
30
08
08
88
88
70
ENDCHAR
STARTCHAR U+10F0
ENCODING 4336
SWIDTH 500 0
DWIDTH 8 0
BBX 5 10 2 2
BITMAP
08
08
30
08
08
30
08
88
88
70
ENDCHAR
STARTCHAR U+10F1
ENCODING 4337
SWIDTH 500 0
DWIDTH 8 0
BBX 5 10 2 2
BITMAP
88
88
B0
88
88
B0
88
88
88
70
ENDCHAR
STARTCHAR U+10F2
ENCODING 4338
SWIDTH 500 0
DWIDTH 8 0
BBX 5 5 2 2
BITMAP
70
88
88
70
88
ENDCHAR
STARTCHAR U+10F3
ENCODING 4339
SWIDTH 500 0
DWIDTH 8 0
BBX 5 9 2 -2
BITMAP
F8
08
10
20
10
08
88
88
70
ENDCHAR
STARTCHAR U+10F4
ENCODING 4340
SWIDTH 500 0
DWIDTH 8 0
BBX 5 11 2 -2
BITMAP
18
20
20
10
08
08
30
08
88
88
70
ENDCHAR
STARTCHAR U+10F5
ENCODING 4341
SWIDTH 500 0
DWIDTH 8 0
BBX 6 10 1 2
BITMAP
70
88
88
7C
08
7C
88
88
88
70
ENDCHAR
STARTCHAR U+10F6
ENCODING 4342
SWIDTH 500 0
DWIDTH 8 0
BBX 5 12 1 -2
BITMAP
40
20
20
20
70
A8
A8
70
20
20
20
10
ENDCHAR
STARTCHAR U+10F7
ENCODING 4343
SWIDTH 500 0
DWIDTH 8 0
BBX 5 9 2 -2
BITMAP
70
88
08
10
20
40
80
88
70
ENDCHAR
STARTCHAR U+10F8
ENCODING 4344
SWIDTH 500 0
DWIDTH 8 0
BBX 5 9 2 -2
BITMAP
90
88
88
88
F0
80
88
88
70
ENDCHAR
STARTCHAR U+10F9
ENCODING 4345
SWIDTH 500 0
DWIDTH 8 0
BBX 6 9 2 -2
BITMAP
70
88
88
88
70
20
04
48
30
ENDCHAR
STARTCHAR U+10FA
ENCODING 4346
SWIDTH 500 0
DWIDTH 8 0
BBX 5 6 2 1
BITMAP
70
88
88
80
60
10
ENDCHAR
STARTCHAR U+10FB
ENCODING 4347
SWIDTH 500 0
DWIDTH 8 0
BBX 5 6 2 1
BITMAP
C0
C0
18
18
C0
C0
ENDCHAR
STARTCHAR U+10FC
ENCODING 4348
SWIDTH 500 0
DWIDTH 8 0
BBX 5 7 2 6
BITMAP
78
80
80
F0
88
88
70
ENDCHAR
ENDFONT
